<?xml version="1.0" encoding="utf-8"?>
<!-- Generator: Adobe Illustrator 16.0.0, SVG Export Plug-In . SVG Version: 6.00 Build 0)  -->
<!DOCTYPE svg PUBLIC "-//W3C//DTD SVG 1.1//EN" "http://www.w3.org/Graphics/SVG/1.1/DTD/svg11.dtd">
<svg version="1.1" id="Layer_1" xmlns="http://www.w3.org/2000/svg" xmlns:xlink="http://www.w3.org/1999/xlink" x="0px" y="0px"
	 width="255.12px" height="56.69px" viewBox="0 0 255.12 56.69" enable-background="new 0 0 255.12 56.69" xml:space="preserve">
<g>
	<g>
		<path fill-rule="evenodd" clip-rule="evenodd" d="M150.604,11.875c-0.945,0.861-1.909,1.701-2.832,2.585
			c-0.984,0.945-0.986,0.915-2.295,0.455c-3.153-1.108-5.887-2.945-8.637-4.779c-2.35-1.566-4.729-3.089-7.473-3.93
			c-1.104-0.338-2.21-0.516-3.358-0.448c-0.708,0.042-0.707,0.189-0.764,0.873c-0.114,1.348-0.25,2.714-0.581,4.021
			c-0.665,2.625-1.93,4.997-3.565,7.139c-1.228,1.608-2.603,3.116-4.422,4.093c-0.756,0.405-1.563,0.685-2.463,0.73
			c-1.53,0.077-2.219-1.116-2.363-2.336c-0.424-8.199,10.25-14.979,10.96-15.204c-1.38-0.199-2.586-0.05-3.723,0.488
			c-2.402,1.14-4.583,2.626-6.542,4.419c-1.403,1.285-2.804,2.58-4.104,3.966c-2.622,2.792-5.083,5.731-7.246,8.894
			c-2.226,3.253-4.266,6.622-5.852,10.248c-1.043,2.386-1.846,4.851-2.292,7.411c-0.264,1.517-0.512,3.053-0.053,4.608
			c0.511,1.738,1.76,3.098,3.572,3.345c1.157,0.158,2.268-0.28,3.292-0.878c2.248-1.308,3.941-3.188,5.498-5.222
			c1.453-1.898,2.66-3.931,3.489-6.177c0.51-1.38,0.896-2.792,0.875-4.276c-0.006-0.403-0.083-0.821-0.214-1.202
			c-0.252-0.729-0.965-0.952-1.804-0.659c-1.028,0.36-1.739,1.105-2.368,1.933c-1.225,1.613-2.079,3.415-2.539,5.387
			c-0.107,0.464-0.37,0.646-0.752,0.858c-1.923,1.066-3.696,2.342-5.219,3.944c-0.066,0.069-0.156,0.117-0.391,0.289
			c0.22-1.114,0.374-2.074,0.601-3.018c0.661-2.755,1.75-5.333,3.51-7.567c1.495-1.896,3.363-3.346,5.719-4.03
			c0.899-0.261,1.833-0.454,2.788-0.079c1.033,0.408,1.554,1.215,1.78,2.214c0.63,2.776-0.121,5.36-1.281,7.84
			c-0.696,1.49-1.463,2.962-2.356,4.34c-2.448,3.775-5.525,6.94-9.624,8.908c-2.08,0.997-4.332,1.372-6.594,0.416
			c-2.106-0.891-3.37-2.562-4.065-4.661c-0.993-2.994-0.695-5.994,0.161-8.969c0.168-0.586,0.357-1.165,0.431-1.869
			c-0.347,0.23-0.7,0.454-1.041,0.694c-1.333,0.935-2.755,1.628-4.413,1.786c-0.235,0.022-0.483,0.386-0.641,0.643
			c-0.888,1.439-1.67,2.95-2.638,4.332c-1.963,2.808-4.182,5.395-7.101,7.28c-1.203,0.776-2.436,1.408-3.96,1.334
			c-1.179-0.058-2.531-1.149-2.76-2.439c-0.424-2.39-0.001-4.654,0.848-6.905c1.76-4.662,4.736-8.441,8.362-11.756
			c1.471-1.346,3.162-2.382,5.01-3.146c1.584-0.654,3.43-0.358,4.304,0.702c0.702,0.852,0.864,1.866,0.77,2.919
			c-0.146,1.651-0.597,3.232-1.191,4.776c-0.066,0.172-0.045,0.378-0.064,0.569c0.209-0.004,0.438,0.046,0.625-0.019
			c1.677-0.587,2.947-1.783,4.311-2.854c1.137-0.892,1.412-2.25,2.008-3.423c1.525-3.004,3.289-5.855,5.234-8.599
			c1.892-2.669,3.967-5.186,6.258-7.531c2.132-2.181,4.447-4.135,6.852-6.007c2.021-1.574,4.18-2.886,6.512-3.911
			c1.891-0.832,3.828-1.548,5.94-1.541c1.272,0.004,2.439,0.317,3.416,1.208c0.136,0.124,0.5,0.093,0.717,0.017
			c1.479-0.517,2.964-0.981,4.542-1.114c3.184-0.268,6.094,0.563,8.816,2.147c2.922,1.7,5.806,3.463,8.756,5.111
			c1.08,0.603,2.301,0.952,3.456,1.417C150.49,11.737,150.547,11.806,150.604,11.875z M123.781,6.949
			c0.045-0.285-0.236-0.427-0.519-0.22c-7.686,3.726-11.378,12.783-9.636,14.196C115.37,22.34,121.867,17.596,123.781,6.949z
			 M75.565,35.022c-0.146,0.183-0.259,0.301-0.345,0.437c-0.55,0.868-1.065,1.759-1.645,2.606c-1.09,1.592-1.939,3.305-2.524,5.136
			c-0.247,0.776-0.464,1.609-0.448,2.412c0.026,1.283,1.146,2.245,2.49,1.384c0.912-0.584,1.795-1.264,2.546-2.041
			c1.7-1.758,2.953-3.848,4.196-5.944c0.314-0.53,0.125-0.644-0.281-0.769C77.819,37.713,76.498,36.672,75.565,35.022z
			 M82.565,31.84c-0.009-0.186-0.003-0.374-0.029-0.558c-0.174-1.303-0.818-1.821-2.046-1.476c-1.042,0.294-1.761,0.972-2.35,1.805
			c-0.525,0.744-0.96,1.582-0.778,2.519c0.299,1.54,1.785,2.72,3.41,2.802c0.117,0.006,0.31-0.069,0.35-0.158
			C81.813,35.191,82.566,33.625,82.565,31.84z"/>
		<path fill-rule="evenodd" clip-rule="evenodd" d="M222.057,5.97c-1.121,0.927-2.242,1.854-3.316,2.743
			c0.934,0.843,1.838,1.597,2.668,2.424c2.004,1.997,3.289,4.448,4.135,7.106c0.995,3.127,0.969,6.339,0.555,9.573
			c-0.531,4.141-2.123,7.864-4.375,11.316c-2.291,3.514-5.096,6.578-8.499,9.061c-2.274,1.659-4.768,2.914-7.519,3.514
			c-2.137,0.465-4.308,0.598-6.525,0.365c-2.178-0.229-4.296-0.702-6.267-1.522c-1.255-0.523-2.144-0.229-3.229,0.17
			c-1.389,0.508-2.812,0.979-4.26,1.252c-1.474,0.28-5.842,1.017-10.706-0.229c-1.149-0.323-2.27-0.773-3.151-1.64
			c-1.617-1.588-1.274-4.406,0.899-5.466c2.069-1.009,4.278-1.123,6.489-0.968c1.637,0.114,3.27,0.435,4.872,0.803
			c1.718,0.396,5.327,1.537,5.43,1.605c0.476,0.308,0.845,0.066,1.171-0.245c9.814-9.932,13.492-26.74,24.415-35.939
			c0.308-0.285,0.291-0.444-0.034-0.66c-2.098-1.387-4.318-2.517-6.793-3.033c-1.451-0.303-2.932-0.457-4.393-0.7
			c-1.834-0.303-3.621-0.072-5.407,0.355c-2.024,0.484-3.907,1.303-5.693,2.349c-2.777,1.625-5.183,3.712-7.331,6.092
			c-1.733,1.921-3.316,3.956-4.098,6.482c-0.652,2.106-0.736,4.186,0.48,6.14c0.459,0.736,1.078,1.324,2.002,1.426
			c0.903,0.099,1.641-0.514,2.066-1.572c0.535-1.332,0.973-2.707,1.385-4.084c0.884-2.943,3.607-3.109,5.596-1.882
			c2.051,1.534,1.514,4.625,1.301,5.739c-0.372,1.938-1.686,3.28-3.354,4.244c-2.514,1.449-6.657,1.187-8.868-0.763
			c-2.275-2.008-3.32-5.421-2.405-8.329c1.052-3.342,2.886-6.203,5.154-8.838c1.769-2.056,3.686-3.931,5.967-5.4
			c2.026-1.304,4.185-2.321,6.519-2.99c2.849-0.817,5.744-1.226,8.688-1.061c4.248,0.239,8.172,1.491,11.598,4.114
			c0.166,0.126,0.545,0.126,0.75,0.028c0.872-0.414,1.697-0.924,2.574-1.323c0.464-0.211,0.999-0.265,1.502-0.39
			C222.051,5.881,222.053,5.926,222.057,5.97z M195.021,47.762c0.133,0.11,0.275,0.305,0.465,0.376
			c3.277,1.62,7.25,1.947,9.805,1.366c2.844-0.646,5.256-2.112,7.314-4.168c2.267-2.263,3.959-4.926,5.355-7.784
			c1.021-2.094,1.836-4.273,2.293-6.564c0.259-1.294,0.553-2.603,0.591-3.913c0.067-2.231,0.095-4.483-0.14-6.698
			c-0.224-2.106-0.982-4.119-1.949-6.023c-0.466-0.919-0.955-1.829-1.479-2.716c-0.357-0.605-0.68-0.589-1.025,0.022
			c-0.881,1.558-1.852,3.078-2.589,4.704c-1.366,3.013-2.601,6.087-3.871,9.142c-0.773,1.86-1.466,3.755-2.278,5.598
			c-1.507,3.416-3.182,6.735-5.498,9.704c-1.599,2.05-3.297,3.992-5.283,5.672C196.217,46.913,195.652,47.29,195.021,47.762z
			 M182.738,50.516c1.809-0.255,3.462-0.9,4.943-1.977c0.259-0.189,0.43-0.413,0.076-0.605c-0.484-0.263-1.013-0.443-1.525-0.653
			c-2.279-0.93-4.627-1.592-7.086-1.852c-1.799-0.189-3.57-0.28-5.29,0.47c-0.857,0.374-1.231,1.055-1.24,1.895
			c-0.009,0.727,0.493,1.235,1.124,1.585C177.623,51.098,181.859,50.641,182.738,50.516z"/>
		<path fill-rule="evenodd" clip-rule="evenodd" d="M117.823,48.719c-0.394,0.396-0.781,0.799-1.186,1.185
			c-1.18,1.12-2.476,2.044-4.096,2.435c-1.999,0.482-3.583-0.866-3.506-2.922c0.091-2.398,0.998-4.523,2.075-6.598
			c1.451-2.793,3.265-5.351,5.233-7.79c1.836-2.277,3.868-4.375,6.295-6.046c0.931-0.643,1.961-1.063,3.071-1.258
			c0.903-0.158,1.973,0.117,2.919,1.453c0.039-0.008,0.104-0.008,0.113-0.029c0.29-0.719,0.878-0.776,1.545-0.767
			c1.059,0.015,2.117-0.03,3.175-0.044c0.116-0.001,0.232,0.029,0.444,0.057c-0.458,0.848-0.866,1.646-1.313,2.421
			c-1.502,2.603-3.017,5.199-4.528,7.797c-1.327,2.282-2.668,4.559-3.977,6.853c-0.241,0.422-0.423,0.904-0.506,1.381
			c-0.107,0.61,0.357,0.926,0.879,0.581c0.769-0.503,1.544-1.036,2.191-1.682c1.023-1.021,2.007-2.098,2.891-3.241
			c1.26-1.632,2.425-3.338,3.613-5.023c1.631-2.315,3.285-4.615,4.855-6.971c1.051-1.578,1.931-3.27,2.967-4.857
			c1.138-1.741,2.362-3.426,3.558-5.128c1.724-2.455,3.806-4.601,5.939-6.687c2.916-2.853,5.979-5.552,9.521-7.611
			c3.379-2.192,8.043-3.49,9.6-3.462c2.066,0.037,3.499,1.144,3.859,3.117c0.274,1.504-0.229,2.822-0.934,4.064
			c-0.439,0.774-1.035,1.477-1.643,2.135c-0.256,0.277-0.711,0.437-1.102,0.514c-1.101,0.217-1.859-0.609-1.66-1.845
			c0.191-1.187,1.35-3.108,2.982-3.297c0.85-0.098,1.129-0.785,0.752-1.608c-0.34-0.745-0.99-1.037-1.909-0.915
			c-1.677,0.221-3.147,0.948-4.546,1.836c-2.636,1.674-4.877,3.833-7.184,5.914c-3.363,3.031-6.115,6.594-8.748,10.229
			c-2.414,3.334-4.564,6.867-6.166,10.681c-0.77,1.829-1.408,3.726-1.936,5.641c-0.492,1.786-0.908,3.629-0.663,5.506
			c0.255,1.957,1.114,3.562,3.142,4.189c1.2,0.371,2.367,0.071,3.459-0.504c1.898-1,3.521-2.354,4.807-4.061
			c1.238-1.643,2.48-3.306,3.498-5.089c1.179-2.063,1.992-4.308,1.991-6.745c0-0.676,0.002-1.433-0.71-1.81
			c-0.75-0.396-1.462-0.085-2.087,0.351c-1.231,0.86-2.123,2.044-2.755,3.374c-0.568,1.199-0.946,2.487-1.428,3.729
			c-0.074,0.192-0.223,0.408-0.396,0.499c-2.109,1.097-3.947,2.551-5.626,4.22c-0.026,0.026-0.075,0.028-0.196,0.07
			c0.045-0.36,0.074-0.688,0.129-1.012c0.52-3.015,1.445-5.894,3.158-8.445c1.617-2.407,3.742-4.266,6.584-5.095
			c1.057-0.31,2.188-0.48,3.23,0.241c0.836,0.579,1.221,1.421,1.335,2.353c0.28,2.298-0.067,4.524-1.07,6.618
			c-0.771,1.608-1.495,3.256-2.435,4.763c-1.739,2.792-3.867,5.279-6.557,7.212c-1.168,0.841-2.385,1.662-3.689,2.253
			c-1.735,0.783-3.618,1.01-5.498,0.496c-2.119-0.58-3.536-2.015-4.403-3.975c-1.089-2.457-1.275-5.035-0.71-7.647
			c0.287-1.323,0.703-2.618,1.057-3.928c0.031-0.112,0.026-0.235,0.06-0.567c-0.268,0.272-0.437,0.396-0.544,0.562
			c-0.891,1.356-1.722,2.755-2.666,4.074c-1.236,1.727-2.506,3.437-3.858,5.073c-1.77,2.145-3.737,4.106-6.071,5.646
			c-0.572,0.377-1.264,0.662-1.938,0.778c-1.729,0.296-2.997-1.135-2.634-2.875c0.045-0.217,0.079-0.436,0.118-0.654
			C117.938,48.794,117.881,48.756,117.823,48.719z M114.932,46.365c-0.125,1.202,0.804,1.889,1.612,1.217
			c0.871-0.726,1.853-1.405,2.478-2.315c1.494-2.172,2.83-4.455,4.185-6.72c1.418-2.372,2.793-4.771,4.157-7.176
			c0.14-0.246,0.202-0.685,0.075-0.9c-0.191-0.322-0.551-0.467-1.025-0.326c-0.969,0.289-1.765,0.813-2.402,1.564
			c-2.08,2.46-4.121,4.951-5.841,7.685c-1.154,1.833-2.23,3.705-2.906,5.776C115.111,45.639,114.999,46.121,114.932,46.365z"/>
		<path fill-rule="evenodd" clip-rule="evenodd" d="M59.455,39.398c0.236-0.527,0.475-1.055,0.708-1.584
			c1.115-2.521,2.224-5.044,3.343-7.563c0.862-1.94,1.674-3.906,2.617-5.806c1.843-3.712,3.691-7.436,6.292-10.698
			c0.711-0.892,1.507-1.789,2.71-2.081c0.958-0.233,2.137,0.112,2.521,0.788c0.701,1.234,0.469,2.603-1.045,3.377
			c-1.387,0.707-2.87,1.233-4.335,1.775c-0.992,0.367-1.453,1.203-1.918,2.009c-1.942,3.357-3.414,6.939-4.924,10.502
			c-1.501,3.54-3.039,7.064-4.562,10.596c-0.334,0.773-0.688,1.54-1.003,2.323c-0.098,0.242-0.145,0.527-0.13,0.788
			c0.055,0.97,0.164,1.938,0.207,2.91c0.007,0.18-0.155,0.466-0.313,0.536c-1.856,0.826-3.357,2.089-4.635,3.647
			c-0.27,0.329-0.601,0.607-0.981,0.985c-0.145-0.756-4.893-24.1,0.245-41.084c0.105-0.461,0.271-0.909,0.379-1.37
			c0.035-0.149-0.03-0.322-0.05-0.483c-0.152,0.069-0.369,0.094-0.45,0.212c-1.428,2.077-2.984,4.082-4.225,6.267
			c-2.185,3.845-4.222,7.777-6.237,11.716c-2.321,4.536-4.585,9.099-7.376,13.374c-1.625,2.489-3.445,4.814-5.596,6.87
			c-2.297,2.196-4.909,3.912-7.967,4.818c-2.344,0.694-4.745,0.909-7.15,0.174c-3.119-0.952-5.205-3.795-5.263-7.037
			c-0.044-2.485,0.761-4.567,2.615-6.234c4.713-3.741,9.612-0.819,8.967,3.122c-0.209,1.444-1.652,2.322-3.131,2.685
			c-1.292,0.316-2.603,0.689-3.789,1.274c-1.917,0.947-1.778,2.435-0.344,3.635c1.687,1.412,3.749,1.703,5.907,1.32
			c3.947-0.701,6.896-3.044,9.533-5.853c2.542-2.709,4.668-5.737,6.469-8.979c1.82-3.279,3.564-6.601,5.306-9.922
			c1.605-3.063,3.1-6.184,4.763-9.214c0.997-1.817,2.182-3.537,3.357-5.251c1.063-1.549,2.166-3.08,3.366-4.523
			c1.293-1.557,2.66-3.075,4.546-3.966c0.251-0.119,0.553-0.164,0.834-0.182c0.483-0.032,0.763,0.26,0.739,0.712
			c-0.03,0.572-0.117,1.15-0.256,1.707c-0.677,2.714-1.067,5.469-1.117,8.265c-0.059,3.257-0.151,6.519-0.085,9.776
			c0.058,2.857,0.28,5.714,0.493,8.568c0.144,1.94,0.391,3.874,0.601,5.81c0.045,0.419,0.132,0.832,0.2,1.248
			C59.343,39.371,59.399,39.385,59.455,39.398z"/>
		<path fill-rule="evenodd" clip-rule="evenodd" d="M246.141,28.104c-0.633,1.116-1.182,2.102-1.747,3.076
			c-1.819,3.136-3.643,6.269-5.467,9.401c-0.891,1.53-1.794,3.052-2.668,4.592c-0.229,0.403-0.419,0.845-0.526,1.295
			c-0.047,0.198,0.1,0.527,0.268,0.666c0.137,0.111,0.508,0.125,0.65,0.018c0.544-0.183,1.896-1.357,2.682-2.189
			c1.192-1.263,2.316-2.605,3.33-4.016c0.578-0.803,1.244-1.01,2.235-0.937c-0.565,0.813-1.066,1.599-1.634,2.334
			c-1.072,1.388-2.141,2.783-3.289,4.107c-1.592,1.834-3.316,3.538-5.387,4.846c-0.768,0.483-1.582,0.769-2.516,0.732
			c-1.127-0.043-1.998-0.893-1.977-2.022c0.005-0.291-0.021-1.351-0.088-1.73c-0.51,0.561-0.859,1.024-1.285,1.398
			c-1.087,0.952-2.172,1.943-3.652,2.237c-1.154,0.231-2.32,0.323-3.204-0.71c-0.616-0.719-0.574-1.604-0.559-2.472
			c0.038-2.148,0.918-4.044,1.855-5.902c1.603-3.168,3.661-6.042,5.934-8.756c1.88-2.243,3.903-4.348,6.483-5.819
			c0.891-0.509,1.832-0.838,2.885-0.808c0.875,0.024,1.551,0.374,2.024,1.105c0.255,0.393,0.452,0.403,0.71-0.018
			c0.113-0.187,0.361-0.407,0.553-0.411C243.158,28.088,244.565,28.104,246.141,28.104z M228.877,47.21
			c0.742-0.509,1.474-1.105,2.027-1.811c2.408-3.06,4.16-6.538,6.133-9.876c0.891-1.509,1.705-3.062,2.597-4.569
			c0.266-0.449,0.221-0.788-0.207-0.959c-0.331-0.132-0.775-0.167-1.11-0.061c-1.076,0.342-1.881,1.113-2.577,1.954
			c-1.146,1.389-2.245,2.815-3.327,4.254c-1.639,2.176-3.158,4.431-4.227,6.952C225.782,48.243,228.553,47.431,228.877,47.21z"/>
		<path fill-rule="evenodd" clip-rule="evenodd" d="M156.11,48.819c-0.046-2.114,0.641-4.052,1.433-5.965
			c1.146-2.768,2.739-5.272,4.605-7.594c2.27-2.822,4.765-5.405,8.261-6.741c0.973-0.37,1.987-0.396,2.981-0.158
			c0.883,0.211,1.618,1.513,1.686,2.679c0.129,2.204-0.547,4.198-1.427,6.178c-1.171,2.633-2.667,5.063-4.295,7.426
			c-2.119,3.075-4.59,5.791-7.958,7.548c-0.926,0.484-1.924,0.805-2.973,0.559c-1.388-0.327-2.273-1.5-2.313-2.934
			C156.102,49.483,156.11,49.152,156.11,48.819z M173.691,32.283c0-0.187,0.016-0.374-0.002-0.56
			c-0.109-1.176-0.803-1.739-1.914-1.518c-0.271,0.054-0.525,0.224-0.769,0.369c-1.461,0.878-2.439,2.242-3.36,3.597
			c-1.365,2.005-2.596,4.106-3.815,6.207c-0.952,1.639-1.761,3.35-2.054,5.261c-0.133,0.856,0.135,1.733,0.705,2.102
			c0.596,0.385,1.179,0.302,1.756-0.013c1.661-0.903,2.863-2.281,3.934-3.803c1.959-2.783,3.74-5.668,4.897-8.889
			C173.387,34.155,173.734,32.295,173.691,32.283z"/>
		<path fill-rule="evenodd" clip-rule="evenodd" d="M155.344,17.876c0.841-0.986,1.674-1.979,2.535-2.948
			c0.105-0.118,0.372-0.163,0.55-0.138c1.851,0.259,3.694,0.381,5.541-0.04c0.569-0.129,1.147-0.219,1.742-0.268
			C162.59,16.58,159.438,18.591,155.344,17.876z"/>
	</g>
</g>
</svg>
